<?xml version="1.0" standalone="no"?>
<!DOCTYPE svg PUBLIC "-//W3C//DTD SVG 1.1//EN" "http://www.w3.org/Graphics/SVG/1.1/DTD/svg11.dtd" >
<svg xmlns="http://www.w3.org/2000/svg" xmlns:xlink="http://www.w3.org/1999/xlink" version="1.1" viewBox="-30 -210 2570 2248">
  <g transform="matrix(1 0 0 -1 0 1638)">
   <path fill="currentColor"
d="M2126 415q0 22 -14.5 35t-34.5 13q-18 0 -27 -10q-1 -1 -38 -24t-107.5 -50t-173 -49t-234.5 -22q-94 0 -194 12t-206 37q-106 26 -195 56.5t-162 68.5q-9 5 -23 5q-20 0 -34 -13.5t-14 -35.5q0 -30 28 -44q210 -105 485 -153v-113q15 -162 91 -262q74 -98 191 -98
q45 0 83.5 17.5t68.5 51t50 81t29 107.5v200q72 7 140.5 26.5t124 42.5t94.5 45t53 35q19 14 19 41zM798 762q0 -25 8 -48t23 -40.5t36.5 -28t48.5 -10.5q64 0 114 54q49 52 49 123q0 25 -8 48t-23 41t-36.5 28.5t-48.5 10.5q-64 0 -114 -53q-49 -53 -49 -125zM1616 660
q0 -16 6 -22.5t20.5 -8t38.5 -1.5t59 -2.5t82 -10t109 -24.5l9 -1q11 0 20.5 9.5t9.5 23.5t-11 22.5t-37 14.5t-67 12t-101 14q40 20 86.5 39.5t99.5 39.5q22 6 22 30q0 14 -9.5 23t-21.5 9q-16 0 -121 -45q-53 -23 -97.5 -46.5t-81.5 -49.5q-15 -9 -15 -26zM2382 286
q0 -32 -2 -66t-5 -68q-36 -43 -126 -76q-45 -17 -101.5 -32t-125.5 -29q-68 -13 -136 -22t-137 -14q-64 -271 -285 -271q-233 0 -315 254q-205 8 -367 24t-265 40q-102 24 -173 51q-36 14 -65 27t-53 25q-44 23 -101 75q-3 10 -5 32.5t-2 58.5q0 60 8.5 115.5t25 109.5
t41 108t56.5 111q33 58 76.5 113t96 104.5t112.5 92t124 75.5l-135 395l-4 27q0 32 21.5 57t57.5 25q26 0 48.5 -15t30.5 -41l129 -383q183 70 413 70q89 0 170 -8t156 -23q148 -31 317 -114l121 353q8 25 29 40t47 15q18 0 33 -7t25.5 -18.5t16.5 -26t6 -30.5l-4 -26
l-133 -390q99 -75 170.5 -156t118 -171.5t68.5 -192t22 -218.5z" />
  </g>

</svg>
